# xmcd
#
# Track frame offsets:
#	150
#	13363
#	26773
#	40207
#	52253
#	66086
#	76207
#	89395
#	101973
#	114538
#	126554
#	139693
#	157463
#	170757
#
# Disc length: 2466
#
# Revision: 2
# Processed by: cddbd v1.5.1PL0 Copyright (c) Steve Scherf et al.
# Submitted via: audiograbber 1.82.02
# Normalized: r1:DSETVAR1
#
DISCID=d509a00e
DTITLE=Various Artist - Country Radio Requests CD 2
DYEAR=1900
DGENRE=Country
TTITLE0=Slim Dusty - The Rutland Rodeo
TTITLE1=Dusty Rankin - The Auburn Station Outlaw
TTITLE2=Tex Morton - Mandrake
TTITLE3=Shirley Thorns - Rodeo In The West
TTITLE4=Buddy Williams - Chain Lightning The Outlaw
TTITLE5=Reg Poole - The Horse No One Could Ride
TTITLE6=Reg Lindsey - Skuthorpa's Last Ride
TTITLE7=Buddy Williams - Mareeba
TTITLE8=Tex Morton - Rocky Ned
TTITLE9=Smokey Dawson - Curio Of Marrabelle
TTITLE10=Rocky Page - Alice Springs Rodeo
TTITLE11=Reg Poole - The Rodeo Queen
TTITLE12=Joan Ridgway - The Rocky Rodeo
TTITLE13=Gordon Parsons - The Rodeo Is On
EXTD=
EXTT0=
EXTT1=
EXTT2=
EXTT3=
EXTT4=
EXTT5=
EXTT6=
EXTT7=
EXTT8=
EXTT9=
EXTT10=
EXTT11=
EXTT12=
EXTT13=
PLAYORDER=
